<?xml version="1.0" encoding="UTF-8" standalone="no"?><!DOCTYPE svg PUBLIC "-//W3C//DTD SVG 1.1//EN" "http://www.w3.org/Graphics/SVG/1.1/DTD/svg11.dtd"><svg width="100%" height="100%" viewBox="0 0 1915 375" version="1.1" xmlns="http://www.w3.org/2000/svg" xmlns:xlink="http://www.w3.org/1999/xlink" xml:space="preserve" xmlns:serif="http://www.serif.com/" style="fill-rule:evenodd;clip-rule:evenodd;stroke-linecap:round;stroke-linejoin:round;stroke-miterlimit:1.5;"><g><path d="M12.153,362.805c0,0 81.736,-127.552 196.875,-127.552c115.139,0 196.875,127.552 196.875,127.552" style="fill:none;stroke:#e8e8f4;stroke-width:24.31px;"/><g id="Circles"><circle cx="209.028" cy="115.423" r="27.975" style="fill:#e8e8ec;"/><circle cx="209.028" cy="115.423" r="71.916" style="fill:#e8e8ec;fill-opacity:0.07;"/><circle cx="209.028" cy="115.423" r="115.423" style="fill:url(#_Radial1);"/><circle cx="209.028" cy="115.423" r="71.916" style="fill:url(#_Radial2);"/></g></g><g transform="matrix(183.333333,0,0,183.333333,524.654533,285.602047)"><path d="M0.02,-0l0.257,-0.7l0.121,0l0.257,0.7l-0.116,-0l-0.225,-0.637l0.047,0l-0.225,0.637l-0.116,-0Zm0.119,-0.169l0.03,-0.087l0.337,0l0.03,0.087l-0.397,0Z" style="fill:#e8e8ec;fill-rule:nonzero;"/></g><g transform="matrix(183.333333,0,0,183.333333,723.0212,285.602047)"><path d="M0.06,-0l0,-0.7l0.285,0c0.056,0 0.101,0.009 0.137,0.028c0.036,0.019 0.062,0.044 0.08,0.076c0.017,0.032 0.026,0.068 0.026,0.108c0,0.034 -0.007,0.065 -0.022,0.094c-0.015,0.029 -0.036,0.052 -0.064,0.071c0.029,0.016 0.051,0.039 0.065,0.067c0.014,0.028 0.022,0.062 0.024,0.1l0.008,0.156l-0.108,-0l-0.009,-0.151c-0.002,-0.029 -0.007,-0.053 -0.016,-0.072c-0.009,-0.018 -0.023,-0.032 -0.042,-0.041c-0.019,-0.009 -0.046,-0.013 -0.08,-0.013l-0.173,0l0,0.277l-0.11,-0Zm0.11,-0.366l0.167,0c0.048,0 0.083,-0.011 0.105,-0.034c0.022,-0.023 0.033,-0.052 0.033,-0.089c0,-0.038 -0.011,-0.067 -0.033,-0.089c-0.022,-0.022 -0.057,-0.032 -0.106,-0.032l-0.167,0l0,0.244Z" style="fill:#e8e8ec;fill-rule:nonzero;"/></g><g transform="matrix(183.333333,0,0,183.333333,913.3212,285.602047)"><path d="M0.369,0.012c-0.07,0 -0.129,-0.015 -0.18,-0.045c-0.05,-0.03 -0.089,-0.073 -0.116,-0.127c-0.027,-0.054 -0.041,-0.117 -0.041,-0.189c0,-0.072 0.014,-0.135 0.041,-0.189c0.027,-0.055 0.066,-0.097 0.116,-0.128c0.05,-0.031 0.11,-0.046 0.18,-0.046c0.083,-0 0.15,0.02 0.202,0.06c0.052,0.04 0.085,0.097 0.098,0.17l-0.121,0c-0.009,-0.041 -0.029,-0.073 -0.059,-0.096c-0.03,-0.023 -0.071,-0.035 -0.121,-0.035c-0.046,0 -0.086,0.011 -0.119,0.032c-0.033,0.021 -0.059,0.051 -0.078,0.091c-0.018,0.039 -0.027,0.087 -0.027,0.141c0,0.055 0.009,0.102 0.027,0.141c0.018,0.039 0.044,0.07 0.078,0.091c0.033,0.021 0.073,0.032 0.119,0.032c0.051,-0 0.091,-0.011 0.121,-0.034c0.03,-0.023 0.05,-0.055 0.06,-0.097l0.121,0c-0.014,0.073 -0.047,0.129 -0.099,0.169c-0.052,0.04 -0.12,0.06 -0.202,0.06Z" style="fill:#e8e8ec;fill-rule:nonzero;"/></g><g transform="matrix(183.333333,0,0,183.333333,1117.3712,285.602047)"><path d="M0.06,-0l0,-0.7l0.11,0l0,0.613l0.317,-0l0,0.087l-0.427,-0Z" style="fill:#e8e8ec;fill-rule:nonzero;"/></g><g transform="matrix(183.333333,0,0,183.333333,1287.687866,285.602047)"><rect x="0.062" y="-0.7" width="0.11" height="0.7" style="fill:#e8e8ec;fill-rule:nonzero;"/></g><g transform="matrix(183.333333,0,0,183.333333,1405.387866,285.602047)"><path d="M0.387,0.012c-0.074,0 -0.138,-0.015 -0.191,-0.045c-0.053,-0.03 -0.094,-0.072 -0.122,-0.125c-0.028,-0.054 -0.042,-0.116 -0.042,-0.186c0,-0.073 0.014,-0.137 0.042,-0.192c0.028,-0.055 0.068,-0.098 0.12,-0.129c0.052,-0.031 0.113,-0.047 0.184,-0.046c0.081,-0 0.148,0.019 0.201,0.058c0.053,0.039 0.088,0.092 0.103,0.161l-0.124,0c-0.01,-0.037 -0.031,-0.065 -0.061,-0.086c-0.031,-0.021 -0.07,-0.031 -0.119,-0.031c-0.048,0 -0.09,0.011 -0.125,0.032c-0.035,0.021 -0.062,0.052 -0.08,0.092c-0.019,0.04 -0.028,0.088 -0.028,0.143c0,0.053 0.01,0.099 0.029,0.138c0.019,0.039 0.047,0.068 0.083,0.089c0.036,0.021 0.08,0.031 0.13,0.031c0.063,0 0.113,-0.018 0.15,-0.055c0.037,-0.037 0.055,-0.088 0.057,-0.154l-0.205,0l0,-0.086l0.315,0l0,0.046c-0,0.075 -0.013,0.139 -0.041,0.19c-0.027,0.052 -0.064,0.091 -0.112,0.117c-0.047,0.026 -0.102,0.04 -0.164,0.04Z" style="fill:#e8e8ec;fill-rule:nonzero;"/></g><g transform="matrix(183.333333,0,0,183.333333,1614.5712,285.602047)"><path d="M0.505,-0l0,-0.7l0.11,0l0,0.7l-0.11,-0Zm-0.444,-0l-0,-0.7l0.11,0l0,0.7l-0.11,-0Zm0.093,-0.312l0,-0.089l0.373,0l0,0.089l-0.373,0Z" style="fill:#e8e8ec;fill-rule:nonzero;"/></g><g transform="matrix(183.333333,0,0,183.333333,1813.1212,285.602047)"><path d="M0.239,-0l0,-0.611l-0.207,0l-0,-0.089l0.523,0l0,0.089l-0.206,0l0,0.611l-0.11,-0Z" style="fill:#e8e8ec;fill-rule:nonzero;"/></g><g transform="matrix(183.333333,0,0,183.333333,1920.737866,285.602047)"></g><defs><radialGradient id="_Radial1" cx="0" cy="0" r="1" gradientUnits="userSpaceOnUse" gradientTransform="matrix(115.423266,0,0,115.423266,209.027778,115.423266)"><stop offset="0" style="stop-color:#e8e8ec;stop-opacity:0.21"/><stop offset="0.49" style="stop-color:#adadb0;stop-opacity:0.16"/><stop offset="1" style="stop-color:#000;stop-opacity:0"/></radialGradient><radialGradient id="_Radial2" cx="0" cy="0" r="1" gradientUnits="userSpaceOnUse" gradientTransform="matrix(71.91585,0,0,71.91585,209.027778,115.423266)"><stop offset="0" style="stop-color:#e8e8ec;stop-opacity:0.14"/><stop offset="0.49" style="stop-color:#adadb0;stop-opacity:0.1"/><stop offset="1" style="stop-color:#000;stop-opacity:0"/></radialGradient></defs></svg>