<?xml version="1.0" encoding="UTF-8" standalone="no"?><!DOCTYPE svg PUBLIC "-//W3C//DTD SVG 1.1//EN" "http://www.w3.org/Graphics/SVG/1.1/DTD/svg11.dtd"><svg width="100%" height="100%" viewBox="0 0 171 171" version="1.1" xmlns="http://www.w3.org/2000/svg" xmlns:xlink="http://www.w3.org/1999/xlink" xml:space="preserve" xmlns:serif="http://www.serif.com/" style="fill-rule:evenodd;clip-rule:evenodd;stroke-linecap:round;stroke-linejoin:round;stroke-miterlimit:1.5;"><path d="M170.667,34.133l0,102.4c0,18.839 -15.295,34.133 -34.133,34.133l-102.4,0c-18.839,0 -34.133,-15.295 -34.133,-34.133l0,-102.4c0,-18.839 15.295,-34.133 34.133,-34.133l102.4,-0c18.839,0 34.133,15.295 34.133,34.133Z" style="fill:#030307;"/><clipPath id="_clip1"><path d="M170.667,34.133l0,102.4c0,18.839 -15.295,34.133 -34.133,34.133l-102.4,0c-18.839,0 -34.133,-15.295 -34.133,-34.133l0,-102.4c0,-18.839 15.295,-34.133 34.133,-34.133l102.4,-0c18.839,0 34.133,15.295 34.133,34.133Z"/></clipPath><g clip-path="url(#_clip1)"><circle cx="41.063" cy="49.009" r="96.591" style="fill:url(#_Radial2);"/><circle cx="110.918" cy="99.438" r="91.374" style="fill:url(#_Radial3);"/><circle cx="85.333" cy="69.333" r="58.886" style="fill:url(#_Radial4);"/></g><g><g><circle cx="85.333" cy="36.336" r="10.616" style="fill:#fff;"/><circle cx="85.333" cy="36.336" r="25.889" style="fill:#fff;fill-opacity:0.14;"/></g><g><path d="M144.22,91.399l0,57.977" style="fill:none;stroke:#fff;stroke-width:10px;"/><path d="M26.447,92.175l0,57.201" style="fill:none;stroke:#fff;stroke-width:10px;"/><path d="M26.447,91.399c0,0 24.448,-14 58.886,-14c34.439,0 58.886,14 58.886,14" style="fill:none;stroke:#fff;stroke-width:10px;"/><path d="M26.447,149.376c0,0 24.448,-14 58.886,-14c34.439,0 58.886,14 58.886,14" style="fill:none;stroke:#fff;stroke-width:10px;"/><path d="M26.447,118.705c0,0 24.448,-14 58.886,-14c34.439,0 58.886,14 58.886,14" style="fill:none;stroke:#fff;stroke-width:10px;"/><path d="M85.333,104.705l0,30.671" style="fill:none;stroke:#fff;stroke-width:10px;"/><path d="M114.776,106.071l0,-23.671" style="fill:none;stroke:#fff;stroke-width:10px;"/><path d="M55.89,106.071l-0,-23.671" style="fill:none;stroke:#fff;stroke-width:10px;"/></g></g><defs><radialGradient id="_Radial2" cx="0" cy="0" r="1" gradientUnits="userSpaceOnUse" gradientTransform="matrix(96.590661,0,0,96.590661,41.063373,49.00891)"><stop offset="0" style="stop-color:#4d7ef7;stop-opacity:0.5"/><stop offset="1" style="stop-color:#4d7ef7;stop-opacity:0"/></radialGradient><radialGradient id="_Radial3" cx="0" cy="0" r="1" gradientUnits="userSpaceOnUse" gradientTransform="matrix(91.373808,0,0,91.373808,110.918018,99.438015)"><stop offset="0" style="stop-color:#4ee7cf;stop-opacity:0.4"/><stop offset="1" style="stop-color:#8b5cf6;stop-opacity:0"/></radialGradient><radialGradient id="_Radial4" cx="0" cy="0" r="1" gradientUnits="userSpaceOnUse" gradientTransform="matrix(58.886229,0,0,58.886229,85.333333,69.333333)"><stop offset="0" style="stop-color:#fff;stop-opacity:0.25"/><stop offset="1" style="stop-color:#8b5cf6;stop-opacity:0"/></radialGradient></defs></svg>